<mxfile host="app.diagrams.net" agent="Mozilla/5.0 (Windows NT 10.0; Win64; x64) AppleWebKit/537.36 (KHTML, like Gecko) Chrome/128.0.0.0 Safari/537.36 Edg/128.0.0.0" version="24.7.13">
  <diagram name="Page-1" id="-lLpuW26wP0kKTF83kYT">
    <mxGraphModel dx="786" dy="463" grid="1" gridSize="10" guides="1" tooltips="1" connect="1" arrows="1" fold="1" page="1" pageScale="1" pageWidth="827" pageHeight="1169" math="0" shadow="0">
      <root>
        <mxCell id="0" />
        <mxCell id="1" parent="0" />
        <mxCell id="Nlg_wDLqZmPlsAexhDsB-1" value="Utilisateur" style="swimlane;fontStyle=1;align=center;verticalAlign=top;childLayout=stackLayout;horizontal=1;startSize=26;horizontalStack=0;resizeParent=1;resizeParentMax=0;resizeLast=0;collapsible=1;marginBottom=0;whiteSpace=wrap;html=1;" parent="1" vertex="1">
          <mxGeometry x="70" y="440" width="160" height="350" as="geometry" />
        </mxCell>
        <mxCell id="Nlg_wDLqZmPlsAexhDsB-2" value="+ id_utlisateur: int&lt;div&gt;&lt;div&gt;+ pseudo: str&lt;/div&gt;&lt;div&gt;+ mdp-utilisateur: str&lt;/div&gt;&lt;div&gt;+ liste_eclaireurs: list&lt;/div&gt;&lt;/div&gt;&lt;div&gt;+liste_film_favoris: list&lt;/div&gt;" style="text;strokeColor=none;fillColor=none;align=left;verticalAlign=top;spacingLeft=4;spacingRight=4;overflow=hidden;rotatable=0;points=[[0,0.5],[1,0.5]];portConstraint=eastwest;whiteSpace=wrap;html=1;" parent="Nlg_wDLqZmPlsAexhDsB-1" vertex="1">
          <mxGeometry y="26" width="160" height="84" as="geometry" />
        </mxCell>
        <mxCell id="Nlg_wDLqZmPlsAexhDsB-3" value="" style="line;strokeWidth=1;fillColor=none;align=left;verticalAlign=middle;spacingTop=-1;spacingLeft=3;spacingRight=3;rotatable=0;labelPosition=right;points=[];portConstraint=eastwest;strokeColor=inherit;" parent="Nlg_wDLqZmPlsAexhDsB-1" vertex="1">
          <mxGeometry y="110" width="160" height="8" as="geometry" />
        </mxCell>
        <mxCell id="Nlg_wDLqZmPlsAexhDsB-4" value="+ s_inscrire()&lt;div&gt;+ se_connecter()&lt;/div&gt;&lt;div&gt;+ se_deconnecter()&lt;/div&gt;&lt;div&gt;+ suivre_eclaireur (pseudo)&lt;/div&gt;&lt;div&gt;+ arreter_de_suivre()&lt;/div&gt;&lt;div&gt;+ chercher_utilisateur()&lt;div&gt;+ chercher_film_titre()&lt;/div&gt;&lt;div&gt;+ chercher_film_genre()&lt;/div&gt;&lt;div&gt;+ ajouter_film_favoris()&lt;/div&gt;&lt;div&gt;+ noter_film()&lt;/div&gt;&lt;/div&gt;" style="text;strokeColor=none;fillColor=none;align=left;verticalAlign=top;spacingLeft=4;spacingRight=4;overflow=hidden;rotatable=0;points=[[0,0.5],[1,0.5]];portConstraint=eastwest;whiteSpace=wrap;html=1;" parent="Nlg_wDLqZmPlsAexhDsB-1" vertex="1">
          <mxGeometry y="118" width="160" height="232" as="geometry" />
        </mxCell>
        <mxCell id="Nlg_wDLqZmPlsAexhDsB-5" value="Film" style="swimlane;fontStyle=1;align=center;verticalAlign=top;childLayout=stackLayout;horizontal=1;startSize=26;horizontalStack=0;resizeParent=1;resizeParentMax=0;resizeLast=0;collapsible=1;marginBottom=0;whiteSpace=wrap;html=1;" parent="1" vertex="1">
          <mxGeometry x="630" y="510" width="160" height="230" as="geometry" />
        </mxCell>
        <mxCell id="Nlg_wDLqZmPlsAexhDsB-6" value="+ id_film: int&lt;div&gt;+ titre: str&lt;br&gt;&lt;div&gt;+ date_sortie: date&amp;nbsp;&lt;/div&gt;&lt;div&gt;+realisateur: str&lt;/div&gt;&lt;div&gt;+langue_vo: str&lt;/div&gt;&lt;div&gt;+genre: str&lt;/div&gt;&lt;div&gt;+resume: str&lt;/div&gt;&lt;div&gt;+moyenne_utilisateurs: float&lt;/div&gt;&lt;/div&gt;" style="text;strokeColor=none;fillColor=none;align=left;verticalAlign=top;spacingLeft=4;spacingRight=4;overflow=hidden;rotatable=0;points=[[0,0.5],[1,0.5]];portConstraint=eastwest;whiteSpace=wrap;html=1;" parent="Nlg_wDLqZmPlsAexhDsB-5" vertex="1">
          <mxGeometry y="26" width="160" height="134" as="geometry" />
        </mxCell>
        <mxCell id="Nlg_wDLqZmPlsAexhDsB-7" value="" style="line;strokeWidth=1;fillColor=none;align=left;verticalAlign=middle;spacingTop=-1;spacingLeft=3;spacingRight=3;rotatable=0;labelPosition=right;points=[];portConstraint=eastwest;strokeColor=inherit;" parent="Nlg_wDLqZmPlsAexhDsB-5" vertex="1">
          <mxGeometry y="160" width="160" height="8" as="geometry" />
        </mxCell>
        <mxCell id="Nlg_wDLqZmPlsAexhDsB-8" value="&lt;div&gt;+ voir_infos&lt;/div&gt;&lt;div&gt;&lt;br&gt;&lt;/div&gt;" style="text;strokeColor=none;fillColor=none;align=left;verticalAlign=top;spacingLeft=4;spacingRight=4;overflow=hidden;rotatable=0;points=[[0,0.5],[1,0.5]];portConstraint=eastwest;whiteSpace=wrap;html=1;" parent="Nlg_wDLqZmPlsAexhDsB-5" vertex="1">
          <mxGeometry y="168" width="160" height="62" as="geometry" />
        </mxCell>
        <mxCell id="Nlg_wDLqZmPlsAexhDsB-9" value="Visionnage" style="swimlane;fontStyle=1;align=center;verticalAlign=top;childLayout=stackLayout;horizontal=1;startSize=26;horizontalStack=0;resizeParent=1;resizeParentMax=0;resizeLast=0;collapsible=1;marginBottom=0;whiteSpace=wrap;html=1;" parent="1" vertex="1">
          <mxGeometry x="370" y="440" width="160" height="190" as="geometry" />
        </mxCell>
        <mxCell id="Nlg_wDLqZmPlsAexhDsB-10" value="+ id_utilisateur: int&lt;div&gt;+ id_film: int&lt;/div&gt;&lt;div&gt;+ note: int&lt;/div&gt;" style="text;strokeColor=none;fillColor=none;align=left;verticalAlign=top;spacingLeft=4;spacingRight=4;overflow=hidden;rotatable=0;points=[[0,0.5],[1,0.5]];portConstraint=eastwest;whiteSpace=wrap;html=1;" parent="Nlg_wDLqZmPlsAexhDsB-9" vertex="1">
          <mxGeometry y="26" width="160" height="54" as="geometry" />
        </mxCell>
        <mxCell id="Nlg_wDLqZmPlsAexhDsB-11" value="" style="line;strokeWidth=1;fillColor=none;align=left;verticalAlign=middle;spacingTop=-1;spacingLeft=3;spacingRight=3;rotatable=0;labelPosition=right;points=[];portConstraint=eastwest;strokeColor=inherit;" parent="Nlg_wDLqZmPlsAexhDsB-9" vertex="1">
          <mxGeometry y="80" width="160" height="8" as="geometry" />
        </mxCell>
        <mxCell id="Nlg_wDLqZmPlsAexhDsB-12" value="&lt;div&gt;+__init__( &quot;a_vu&quot;)&lt;br&gt;&lt;/div&gt;+ noter()&lt;div&gt;+ moyenne_notes (eclaireur)&lt;/div&gt;&lt;div&gt;&lt;i&gt;Voir si dictionnaire&lt;/i&gt;&lt;/div&gt;" style="text;strokeColor=none;fillColor=none;align=left;verticalAlign=top;spacingLeft=4;spacingRight=4;overflow=hidden;rotatable=0;points=[[0,0.5],[1,0.5]];portConstraint=eastwest;whiteSpace=wrap;html=1;" parent="Nlg_wDLqZmPlsAexhDsB-9" vertex="1">
          <mxGeometry y="88" width="160" height="102" as="geometry" />
        </mxCell>
        <mxCell id="Nlg_wDLqZmPlsAexhDsB-19" style="edgeStyle=orthogonalEdgeStyle;rounded=0;orthogonalLoop=1;jettySize=auto;html=1;exitX=0;exitY=0.049;exitDx=0;exitDy=0;entryX=1;entryY=0.5;entryDx=0;entryDy=0;dashed=1;endArrow=open;endFill=0;exitPerimeter=0;" parent="1" source="Nlg_wDLqZmPlsAexhDsB-12" target="Nlg_wDLqZmPlsAexhDsB-2" edge="1">
          <mxGeometry relative="1" as="geometry" />
        </mxCell>
        <mxCell id="Nlg_wDLqZmPlsAexhDsB-20" value="" style="edgeStyle=orthogonalEdgeStyle;rounded=0;orthogonalLoop=1;jettySize=auto;html=1;dashed=1;endArrow=open;endFill=0;" parent="1" source="Nlg_wDLqZmPlsAexhDsB-10" target="Nlg_wDLqZmPlsAexhDsB-6" edge="1">
          <mxGeometry relative="1" as="geometry" />
        </mxCell>
        <mxCell id="rQghAvtojJ0p5Yv69ZFT-5" style="edgeStyle=orthogonalEdgeStyle;rounded=0;orthogonalLoop=1;jettySize=auto;html=1;exitX=1;exitY=0.5;exitDx=0;exitDy=0;entryX=0.008;entryY=1.033;entryDx=0;entryDy=0;entryPerimeter=0;" parent="1" source="Nlg_wDLqZmPlsAexhDsB-4" target="Nlg_wDLqZmPlsAexhDsB-6" edge="1">
          <mxGeometry relative="1" as="geometry" />
        </mxCell>
      </root>
    </mxGraphModel>
  </diagram>
</mxfile>
